<mxfile host="Electron" agent="Mozilla/5.0 (Macintosh; Intel Mac OS X 10_15_7) AppleWebKit/537.36 (KHTML, like Gecko) draw.io/27.0.2 Chrome/134.0.6998.205 Electron/35.3.0 Safari/537.36" version="27.0.2">
  <diagram name="Page-1" id="0q-i8hQF_RcqxQjaePT7">
    <mxGraphModel dx="1018" dy="777" grid="1" gridSize="10" guides="1" tooltips="1" connect="1" arrows="1" fold="1" page="1" pageScale="1" pageWidth="850" pageHeight="1100" math="0" shadow="0">
      <root>
        <mxCell id="0" />
        <mxCell id="1" parent="0" />
        <mxCell id="PlFN_3los5BeJ4juSs5C-5" value="" style="group" vertex="1" connectable="0" parent="1">
          <mxGeometry x="125" y="40" width="120" height="60" as="geometry" />
        </mxCell>
        <mxCell id="PlFN_3los5BeJ4juSs5C-3" value="&lt;font style=&quot;font-size: 24px;&quot;&gt;1&lt;/font&gt;" style="rounded=0;whiteSpace=wrap;html=1;" vertex="1" parent="PlFN_3los5BeJ4juSs5C-5">
          <mxGeometry width="80" height="60" as="geometry" />
        </mxCell>
        <mxCell id="PlFN_3los5BeJ4juSs5C-4" value="" style="rounded=0;whiteSpace=wrap;html=1;" vertex="1" parent="PlFN_3los5BeJ4juSs5C-5">
          <mxGeometry x="80" width="40" height="60" as="geometry" />
        </mxCell>
        <mxCell id="PlFN_3los5BeJ4juSs5C-6" value="" style="group" vertex="1" connectable="0" parent="1">
          <mxGeometry x="245" y="40" width="120" height="60" as="geometry" />
        </mxCell>
        <mxCell id="PlFN_3los5BeJ4juSs5C-7" value="&lt;font style=&quot;font-size: 24px;&quot;&gt;2&lt;/font&gt;" style="rounded=0;whiteSpace=wrap;html=1;" vertex="1" parent="PlFN_3los5BeJ4juSs5C-6">
          <mxGeometry width="80" height="60" as="geometry" />
        </mxCell>
        <mxCell id="PlFN_3los5BeJ4juSs5C-8" value="" style="rounded=0;whiteSpace=wrap;html=1;" vertex="1" parent="PlFN_3los5BeJ4juSs5C-6">
          <mxGeometry x="80" width="40" height="60" as="geometry" />
        </mxCell>
        <mxCell id="PlFN_3los5BeJ4juSs5C-9" value="" style="group" vertex="1" connectable="0" parent="1">
          <mxGeometry x="365" y="40" width="120" height="60" as="geometry" />
        </mxCell>
        <mxCell id="PlFN_3los5BeJ4juSs5C-10" value="&lt;font style=&quot;font-size: 24px;&quot;&gt;3&lt;/font&gt;&lt;span style=&quot;color: rgba(0, 0, 0, 0); font-family: monospace; font-size: 0px; text-align: start; text-wrap-mode: nowrap;&quot;&gt;%3CmxGraphModel%3E%3Croot%3E%3CmxCell%20id%3D%220%22%2F%3E%3CmxCell%20id%3D%221%22%20parent%3D%220%22%2F%3E%3CmxCell%20id%3D%222%22%20value%3D%22%22%20style%3D%22group%22%20vertex%3D%221%22%20connectable%3D%220%22%20parent%3D%221%22%3E%3CmxGeometry%20x%3D%22230%22%20y%3D%22180%22%20width%3D%22120%22%20height%3D%2260%22%20as%3D%22geometry%22%2F%3E%3C%2FmxCell%3E%3CmxCell%20id%3D%223%22%20value%3D%22%26lt%3Bfont%20style%3D%26quot%3Bfont-size%3A%2024px%3B%26quot%3B%26gt%3B1%26lt%3B%2Ffont%26gt%3B%22%20style%3D%22rounded%3D0%3BwhiteSpace%3Dwrap%3Bhtml%3D1%3B%22%20vertex%3D%221%22%20parent%3D%222%22%3E%3CmxGeometry%20width%3D%2280%22%20height%3D%2260%22%20as%3D%22geometry%22%2F%3E%3C%2FmxCell%3E%3CmxCell%20id%3D%224%22%20value%3D%22%22%20style%3D%22rounded%3D0%3BwhiteSpace%3Dwrap%3Bhtml%3D1%3B%22%20vertex%3D%221%22%20parent%3D%222%22%3E%3CmxGeometry%20x%3D%2280%22%20width%3D%2240%22%20height%3D%2260%22%20as%3D%22geometry%22%2F%3E%3C%2FmxCell%3E%3C%2Froot%3E%3C%2FmxGraphModel%3E&lt;/span&gt;" style="rounded=0;whiteSpace=wrap;html=1;" vertex="1" parent="PlFN_3los5BeJ4juSs5C-9">
          <mxGeometry width="80" height="60" as="geometry" />
        </mxCell>
        <mxCell id="PlFN_3los5BeJ4juSs5C-11" value="" style="rounded=0;whiteSpace=wrap;html=1;" vertex="1" parent="PlFN_3los5BeJ4juSs5C-9">
          <mxGeometry x="80" width="40" height="60" as="geometry" />
        </mxCell>
        <mxCell id="PlFN_3los5BeJ4juSs5C-12" value="" style="group" vertex="1" connectable="0" parent="1">
          <mxGeometry x="485" y="40" width="120" height="60" as="geometry" />
        </mxCell>
        <mxCell id="PlFN_3los5BeJ4juSs5C-13" value="&lt;font style=&quot;font-size: 24px;&quot;&gt;4&lt;/font&gt;&lt;span style=&quot;color: rgba(0, 0, 0, 0); font-family: monospace; font-size: 0px; text-align: start; text-wrap-mode: nowrap;&quot;&gt;%3CmxGraphModel%3E%3Croot%3E%3CmxCell%20id%3D%220%22%2F%3E%3CmxCell%20id%3D%221%22%20parent%3D%220%22%2F%3E%3CmxCell%20id%3D%222%22%20value%3D%22%22%20style%3D%22group%22%20vertex%3D%221%22%20connectable%3D%220%22%20parent%3D%221%22%3E%3CmxGeometry%20x%3D%22230%22%20y%3D%22180%22%20width%3D%22120%22%20height%3D%2260%22%20as%3D%22geometry%22%2F%3E%3C%2FmxCell%3E%3CmxCell%20id%3D%223%22%20value%3D%22%26lt%3Bfont%20style%3D%26quot%3Bfont-size%3A%2024px%3B%26quot%3B%26gt%3B1%26lt%3B%2Ffont%26gt%3B%22%20style%3D%22rounded%3D0%3BwhiteSpace%3Dwrap%3Bhtml%3D1%3B%22%20vertex%3D%221%22%20parent%3D%222%22%3E%3CmxGeometry%20width%3D%2280%22%20height%3D%2260%22%20as%3D%22geometry%22%2F%3E%3C%2FmxCell%3E%3CmxCell%20id%3D%224%22%20value%3D%22%22%20style%3D%22rounded%3D0%3BwhiteSpace%3Dwrap%3Bhtml%3D1%3B%22%20vertex%3D%221%22%20parent%3D%222%22%3E%3CmxGeometry%20x%3D%2280%22%20width%3D%2240%22%20height%3D%2260%22%20as%3D%22geometry%22%2F%3E%3C%2FmxCell%3E%3C%2Froot%3E%3C%2FmxGraphModel%3E&lt;/span&gt;&lt;span style=&quot;color: rgba(0, 0, 0, 0); font-family: monospace; font-size: 0px; text-align: start; text-wrap-mode: nowrap;&quot;&gt;%3CmxGraphModel%3E%3Croot%3E%3CmxCell%20id%3D%220%22%2F%3E%3CmxCell%20id%3D%221%22%20parent%3D%220%22%2F%3E%3CmxCell%20id%3D%222%22%20value%3D%22%22%20style%3D%22group%22%20vertex%3D%221%22%20connectable%3D%220%22%20parent%3D%221%22%3E%3CmxGeometry%20x%3D%22230%22%20y%3D%22180%22%20width%3D%22120%22%20height%3D%2260%22%20as%3D%22geometry%22%2F%3E%3C%2FmxCell%3E%3CmxCell%20id%3D%223%22%20value%3D%22%26lt%3Bfont%20style%3D%26quot%3Bfont-size%3A%2024px%3B%26quot%3B%26gt%3B1%26lt%3B%2Ffont%26gt%3B%22%20style%3D%22rounded%3D0%3BwhiteSpace%3Dwrap%3Bhtml%3D1%3B%22%20vertex%3D%221%22%20parent%3D%222%22%3E%3CmxGeometry%20width%3D%2280%22%20height%3D%2260%22%20as%3D%22geometry%22%2F%3E%3C%2FmxCell%3E%3CmxCell%20id%3D%224%22%20value%3D%22%22%20style%3D%22rounded%3D0%3BwhiteSpace%3Dwrap%3Bhtml%3D1%3B%22%20vertex%3D%221%22%20parent%3D%222%22%3E%3CmxGeometry%20x%3D%2280%22%20width%3D%2240%22%20height%3D%2260%22%20as%3D%22geometry%22%2F%3E%3C%2FmxCell%3E%3C%2Froot%3E%3C%2FmxGraphModel%3E&lt;/span&gt;" style="rounded=0;whiteSpace=wrap;html=1;" vertex="1" parent="PlFN_3los5BeJ4juSs5C-12">
          <mxGeometry width="80" height="60" as="geometry" />
        </mxCell>
        <mxCell id="PlFN_3los5BeJ4juSs5C-14" value="" style="rounded=0;whiteSpace=wrap;html=1;" vertex="1" parent="PlFN_3los5BeJ4juSs5C-12">
          <mxGeometry x="80" width="40" height="60" as="geometry" />
        </mxCell>
        <mxCell id="PlFN_3los5BeJ4juSs5C-15" value="" style="group" vertex="1" connectable="0" parent="1">
          <mxGeometry x="5" y="40" width="120" height="60" as="geometry" />
        </mxCell>
        <mxCell id="PlFN_3los5BeJ4juSs5C-16" value="&lt;font style=&quot;font-size: 24px;&quot;&gt;0&lt;/font&gt;" style="rounded=0;whiteSpace=wrap;html=1;" vertex="1" parent="PlFN_3los5BeJ4juSs5C-15">
          <mxGeometry width="80" height="60" as="geometry" />
        </mxCell>
        <mxCell id="PlFN_3los5BeJ4juSs5C-17" value="" style="rounded=0;whiteSpace=wrap;html=1;" vertex="1" parent="PlFN_3los5BeJ4juSs5C-15">
          <mxGeometry x="80" width="40" height="60" as="geometry" />
        </mxCell>
        <mxCell id="PlFN_3los5BeJ4juSs5C-18" value="" style="endArrow=classic;html=1;rounded=0;entryX=0.5;entryY=0;entryDx=0;entryDy=0;exitX=0.5;exitY=1;exitDx=0;exitDy=0;" edge="1" parent="1" source="PlFN_3los5BeJ4juSs5C-17" target="PlFN_3los5BeJ4juSs5C-19">
          <mxGeometry width="50" height="50" relative="1" as="geometry">
            <mxPoint x="25" y="340" as="sourcePoint" />
            <mxPoint x="85" y="210" as="targetPoint" />
          </mxGeometry>
        </mxCell>
        <mxCell id="PlFN_3los5BeJ4juSs5C-19" value="&lt;font style=&quot;font-size: 24px;&quot;&gt;5&lt;/font&gt;" style="rounded=0;whiteSpace=wrap;html=1;" vertex="1" parent="1">
          <mxGeometry x="15" y="210" width="80" height="60" as="geometry" />
        </mxCell>
        <mxCell id="PlFN_3los5BeJ4juSs5C-20" value="&lt;font style=&quot;font-size: 24px;&quot;&gt;1&lt;/font&gt;" style="rounded=0;whiteSpace=wrap;html=1;" vertex="1" parent="1">
          <mxGeometry x="95" y="210" width="80" height="60" as="geometry" />
        </mxCell>
        <mxCell id="PlFN_3los5BeJ4juSs5C-21" value="&lt;font style=&quot;font-size: 24px;&quot;&gt;3&lt;/font&gt;" style="rounded=0;whiteSpace=wrap;html=1;" vertex="1" parent="1">
          <mxGeometry x="175" y="210" width="80" height="60" as="geometry" />
        </mxCell>
        <mxCell id="PlFN_3los5BeJ4juSs5C-24" value="" style="endArrow=classic;html=1;rounded=0;entryX=0.5;entryY=0;entryDx=0;entryDy=0;exitX=0.5;exitY=1;exitDx=0;exitDy=0;" edge="1" parent="1" source="PlFN_3los5BeJ4juSs5C-4" target="PlFN_3los5BeJ4juSs5C-19">
          <mxGeometry width="50" height="50" relative="1" as="geometry">
            <mxPoint x="165" y="170" as="sourcePoint" />
            <mxPoint x="215" y="120" as="targetPoint" />
          </mxGeometry>
        </mxCell>
        <mxCell id="PlFN_3los5BeJ4juSs5C-25" value="" style="endArrow=classic;html=1;rounded=0;exitX=0.5;exitY=1;exitDx=0;exitDy=0;entryX=0.5;entryY=0;entryDx=0;entryDy=0;" edge="1" parent="1" source="PlFN_3los5BeJ4juSs5C-11" target="PlFN_3los5BeJ4juSs5C-19">
          <mxGeometry width="50" height="50" relative="1" as="geometry">
            <mxPoint x="265" y="190" as="sourcePoint" />
            <mxPoint x="315" y="140" as="targetPoint" />
          </mxGeometry>
        </mxCell>
        <mxCell id="PlFN_3los5BeJ4juSs5C-26" value="" style="endArrow=classic;html=1;rounded=0;entryX=0.5;entryY=0;entryDx=0;entryDy=0;exitX=0.5;exitY=1;exitDx=0;exitDy=0;" edge="1" parent="1" source="PlFN_3los5BeJ4juSs5C-8" target="PlFN_3los5BeJ4juSs5C-22">
          <mxGeometry width="50" height="50" relative="1" as="geometry">
            <mxPoint x="335" y="210" as="sourcePoint" />
            <mxPoint x="385" y="160" as="targetPoint" />
          </mxGeometry>
        </mxCell>
        <mxCell id="PlFN_3los5BeJ4juSs5C-27" value="" style="endArrow=classic;html=1;rounded=0;entryX=0.5;entryY=0;entryDx=0;entryDy=0;exitX=0.5;exitY=1;exitDx=0;exitDy=0;" edge="1" parent="1" source="PlFN_3los5BeJ4juSs5C-14" target="PlFN_3los5BeJ4juSs5C-22">
          <mxGeometry width="50" height="50" relative="1" as="geometry">
            <mxPoint x="355" y="110" as="sourcePoint" />
            <mxPoint x="435" y="220" as="targetPoint" />
          </mxGeometry>
        </mxCell>
        <mxCell id="PlFN_3los5BeJ4juSs5C-29" value="&lt;font style=&quot;font-size: 24px;&quot;&gt;0&lt;/font&gt;" style="rounded=0;whiteSpace=wrap;html=1;" vertex="1" parent="1">
          <mxGeometry x="255" y="210" width="80" height="60" as="geometry" />
        </mxCell>
        <mxCell id="PlFN_3los5BeJ4juSs5C-30" value="" style="group" vertex="1" connectable="0" parent="1">
          <mxGeometry x="455" y="210" width="160" height="60" as="geometry" />
        </mxCell>
        <mxCell id="PlFN_3los5BeJ4juSs5C-22" value="&lt;font style=&quot;font-size: 24px;&quot;&gt;2&lt;/font&gt;" style="rounded=0;whiteSpace=wrap;html=1;" vertex="1" parent="PlFN_3los5BeJ4juSs5C-30">
          <mxGeometry width="80" height="60" as="geometry" />
        </mxCell>
        <mxCell id="PlFN_3los5BeJ4juSs5C-23" value="&lt;font style=&quot;font-size: 24px;&quot;&gt;4&lt;/font&gt;" style="rounded=0;whiteSpace=wrap;html=1;" vertex="1" parent="PlFN_3los5BeJ4juSs5C-30">
          <mxGeometry x="80" width="80" height="60" as="geometry" />
        </mxCell>
        <mxCell id="PlFN_3los5BeJ4juSs5C-31" value="" style="group" vertex="1" connectable="0" parent="1">
          <mxGeometry x="605" y="40" width="120" height="60" as="geometry" />
        </mxCell>
        <mxCell id="PlFN_3los5BeJ4juSs5C-32" value="&lt;span style=&quot;font-size: 24px;&quot;&gt;5&lt;/span&gt;" style="rounded=0;whiteSpace=wrap;html=1;" vertex="1" parent="PlFN_3los5BeJ4juSs5C-31">
          <mxGeometry width="80" height="60" as="geometry" />
        </mxCell>
        <mxCell id="PlFN_3los5BeJ4juSs5C-33" value="" style="rounded=0;whiteSpace=wrap;html=1;" vertex="1" parent="PlFN_3los5BeJ4juSs5C-31">
          <mxGeometry x="80" width="40" height="60" as="geometry" />
        </mxCell>
        <mxCell id="PlFN_3los5BeJ4juSs5C-34" value="" style="endArrow=classic;html=1;rounded=0;exitX=0.5;exitY=1;exitDx=0;exitDy=0;entryX=0.5;entryY=0;entryDx=0;entryDy=0;" edge="1" parent="1" source="PlFN_3los5BeJ4juSs5C-33" target="PlFN_3los5BeJ4juSs5C-19">
          <mxGeometry width="50" height="50" relative="1" as="geometry">
            <mxPoint x="595" y="110" as="sourcePoint" />
            <mxPoint x="85" y="210" as="targetPoint" />
          </mxGeometry>
        </mxCell>
        <mxCell id="PlFN_3los5BeJ4juSs5C-35" value="&lt;b&gt;&lt;font style=&quot;font-size: 36px;&quot;&gt;Index&lt;/font&gt;&lt;/b&gt;" style="text;strokeColor=none;fillColor=none;align=left;verticalAlign=middle;spacingLeft=4;spacingRight=4;overflow=hidden;points=[[0,0.5],[1,0.5]];portConstraint=eastwest;rotatable=0;whiteSpace=wrap;html=1;" vertex="1" parent="1">
          <mxGeometry x="295" width="130" height="40" as="geometry" />
        </mxCell>
        <mxCell id="PlFN_3los5BeJ4juSs5C-36" value="&lt;b&gt;&lt;font style=&quot;font-size: 36px;&quot;&gt;Files&lt;/font&gt;&lt;/b&gt;" style="text;strokeColor=none;fillColor=none;align=left;verticalAlign=middle;spacingLeft=4;spacingRight=4;overflow=hidden;points=[[0,0.5],[1,0.5]];portConstraint=eastwest;rotatable=0;whiteSpace=wrap;html=1;" vertex="1" parent="1">
          <mxGeometry x="415" y="280" width="130" height="40" as="geometry" />
        </mxCell>
        <mxCell id="PlFN_3los5BeJ4juSs5C-38" value="&lt;font face=&quot;Comic Sans MS&quot; style=&quot;font-size: 24px; color: rgb(179, 179, 179);&quot;&gt;6&lt;/font&gt;" style="rounded=0;whiteSpace=wrap;html=1;fillColor=#FFFFFF;strokeColor=#B3B3B3;dashed=1;" vertex="1" parent="1">
          <mxGeometry x="615" y="210" width="80" height="60" as="geometry" />
        </mxCell>
        <mxCell id="PlFN_3los5BeJ4juSs5C-40" value="" style="group" vertex="1" connectable="0" parent="1">
          <mxGeometry x="725" y="40" width="120" height="60" as="geometry" />
        </mxCell>
        <mxCell id="PlFN_3los5BeJ4juSs5C-41" value="&lt;span style=&quot;font-size: 24px;&quot;&gt;7&lt;/span&gt;" style="rounded=0;whiteSpace=wrap;html=1;" vertex="1" parent="PlFN_3los5BeJ4juSs5C-40">
          <mxGeometry width="80" height="60" as="geometry" />
        </mxCell>
        <mxCell id="PlFN_3los5BeJ4juSs5C-42" value="" style="rounded=0;whiteSpace=wrap;html=1;" vertex="1" parent="PlFN_3los5BeJ4juSs5C-40">
          <mxGeometry x="80" width="40" height="60" as="geometry" />
        </mxCell>
        <mxCell id="PlFN_3los5BeJ4juSs5C-46" value="&lt;font style=&quot;font-size: 24px;&quot;&gt;7&lt;/font&gt;" style="rounded=0;whiteSpace=wrap;html=1;" vertex="1" parent="1">
          <mxGeometry x="335" y="210" width="80" height="60" as="geometry" />
        </mxCell>
        <mxCell id="PlFN_3los5BeJ4juSs5C-47" value="" style="endArrow=classic;html=1;rounded=0;exitX=0.5;exitY=1;exitDx=0;exitDy=0;" edge="1" parent="1" source="PlFN_3los5BeJ4juSs5C-42">
          <mxGeometry width="50" height="50" relative="1" as="geometry">
            <mxPoint x="715" y="110" as="sourcePoint" />
            <mxPoint x="65" y="210" as="targetPoint" />
          </mxGeometry>
        </mxCell>
        <mxCell id="PlFN_3los5BeJ4juSs5C-48" value="" style="group" vertex="1" connectable="0" parent="1">
          <mxGeometry x="55" y="380" width="120" height="60" as="geometry" />
        </mxCell>
        <mxCell id="PlFN_3los5BeJ4juSs5C-49" value="&lt;span style=&quot;font-size: 24px;&quot;&gt;1&lt;/span&gt;" style="rounded=0;whiteSpace=wrap;html=1;" vertex="1" parent="PlFN_3los5BeJ4juSs5C-48">
          <mxGeometry width="80" height="60" as="geometry" />
        </mxCell>
        <mxCell id="PlFN_3los5BeJ4juSs5C-50" value="" style="rounded=0;whiteSpace=wrap;html=1;" vertex="1" parent="PlFN_3los5BeJ4juSs5C-48">
          <mxGeometry x="80" width="40" height="60" as="geometry" />
        </mxCell>
        <mxCell id="PlFN_3los5BeJ4juSs5C-51" value="" style="group" vertex="1" connectable="0" parent="1">
          <mxGeometry x="175" y="380" width="120" height="60" as="geometry" />
        </mxCell>
        <mxCell id="PlFN_3los5BeJ4juSs5C-52" value="&lt;font style=&quot;font-size: 24px;&quot;&gt;4&lt;/font&gt;" style="rounded=0;whiteSpace=wrap;html=1;" vertex="1" parent="PlFN_3los5BeJ4juSs5C-51">
          <mxGeometry width="80" height="60" as="geometry" />
        </mxCell>
        <mxCell id="PlFN_3los5BeJ4juSs5C-53" value="" style="rounded=0;whiteSpace=wrap;html=1;" vertex="1" parent="PlFN_3los5BeJ4juSs5C-51">
          <mxGeometry x="80" width="40" height="60" as="geometry" />
        </mxCell>
        <mxCell id="PlFN_3los5BeJ4juSs5C-54" value="" style="group" vertex="1" connectable="0" parent="1">
          <mxGeometry x="295" y="380" width="120" height="60" as="geometry" />
        </mxCell>
        <mxCell id="PlFN_3los5BeJ4juSs5C-55" value="&lt;span style=&quot;font-size: 24px;&quot;&gt;6&lt;/span&gt;" style="rounded=0;whiteSpace=wrap;html=1;" vertex="1" parent="PlFN_3los5BeJ4juSs5C-54">
          <mxGeometry width="80" height="60" as="geometry" />
        </mxCell>
        <mxCell id="PlFN_3los5BeJ4juSs5C-56" value="" style="rounded=0;whiteSpace=wrap;html=1;" vertex="1" parent="PlFN_3los5BeJ4juSs5C-54">
          <mxGeometry x="80" width="40" height="60" as="geometry" />
        </mxCell>
        <mxCell id="PlFN_3los5BeJ4juSs5C-57" value="" style="group" vertex="1" connectable="0" parent="1">
          <mxGeometry x="415" y="380" width="120" height="60" as="geometry" />
        </mxCell>
        <mxCell id="PlFN_3los5BeJ4juSs5C-58" value="&lt;span style=&quot;font-size: 24px;&quot;&gt;18&lt;/span&gt;" style="rounded=0;whiteSpace=wrap;html=1;" vertex="1" parent="PlFN_3los5BeJ4juSs5C-57">
          <mxGeometry width="80" height="60" as="geometry" />
        </mxCell>
        <mxCell id="PlFN_3los5BeJ4juSs5C-59" value="" style="rounded=0;whiteSpace=wrap;html=1;" vertex="1" parent="PlFN_3los5BeJ4juSs5C-57">
          <mxGeometry x="80" width="40" height="60" as="geometry" />
        </mxCell>
        <mxCell id="PlFN_3los5BeJ4juSs5C-64" value="&lt;font style=&quot;font-size: 24px;&quot;&gt;6&lt;/font&gt;" style="rounded=0;whiteSpace=wrap;html=1;" vertex="1" parent="1">
          <mxGeometry x="335" y="660" width="80" height="60" as="geometry" />
        </mxCell>
        <mxCell id="PlFN_3los5BeJ4juSs5C-65" value="&lt;font style=&quot;font-size: 24px;&quot;&gt;3&lt;/font&gt;" style="rounded=0;whiteSpace=wrap;html=1;" vertex="1" parent="1">
          <mxGeometry x="15" y="530" width="80" height="60" as="geometry" />
        </mxCell>
        <mxCell id="PlFN_3los5BeJ4juSs5C-66" value="&lt;font style=&quot;font-size: 24px;&quot;&gt;1&lt;/font&gt;" style="rounded=0;whiteSpace=wrap;html=1;" vertex="1" parent="1">
          <mxGeometry x="95" y="530" width="80" height="60" as="geometry" />
        </mxCell>
        <mxCell id="PlFN_3los5BeJ4juSs5C-75" value="" style="group" vertex="1" connectable="0" parent="1">
          <mxGeometry x="535" y="380" width="120" height="60" as="geometry" />
        </mxCell>
        <mxCell id="PlFN_3los5BeJ4juSs5C-76" value="&lt;span style=&quot;font-size: 24px;&quot;&gt;19&lt;/span&gt;" style="rounded=0;whiteSpace=wrap;html=1;" vertex="1" parent="PlFN_3los5BeJ4juSs5C-75">
          <mxGeometry width="80" height="60" as="geometry" />
        </mxCell>
        <mxCell id="PlFN_3los5BeJ4juSs5C-77" value="" style="rounded=0;whiteSpace=wrap;html=1;" vertex="1" parent="PlFN_3los5BeJ4juSs5C-75">
          <mxGeometry x="80" width="40" height="60" as="geometry" />
        </mxCell>
        <mxCell id="PlFN_3los5BeJ4juSs5C-79" value="&lt;b&gt;&lt;font style=&quot;font-size: 36px;&quot;&gt;Index&lt;/font&gt;&lt;/b&gt;" style="text;strokeColor=none;fillColor=none;align=left;verticalAlign=middle;spacingLeft=4;spacingRight=4;overflow=hidden;points=[[0,0.5],[1,0.5]];portConstraint=eastwest;rotatable=0;whiteSpace=wrap;html=1;" vertex="1" parent="1">
          <mxGeometry x="290" y="330" width="130" height="40" as="geometry" />
        </mxCell>
        <mxCell id="PlFN_3los5BeJ4juSs5C-80" value="&lt;b&gt;&lt;font style=&quot;font-size: 36px;&quot;&gt;Files&lt;/font&gt;&lt;/b&gt;" style="text;strokeColor=none;fillColor=none;align=left;verticalAlign=middle;spacingLeft=4;spacingRight=4;overflow=hidden;points=[[0,0.5],[1,0.5]];portConstraint=eastwest;rotatable=0;whiteSpace=wrap;html=1;" vertex="1" parent="1">
          <mxGeometry x="240" y="570" width="130" height="40" as="geometry" />
        </mxCell>
        <mxCell id="PlFN_3los5BeJ4juSs5C-82" value="" style="group" vertex="1" connectable="0" parent="1">
          <mxGeometry x="655" y="380" width="120" height="60" as="geometry" />
        </mxCell>
        <mxCell id="PlFN_3los5BeJ4juSs5C-83" value="&lt;span style=&quot;font-size: 24px;&quot;&gt;25&lt;/span&gt;" style="rounded=0;whiteSpace=wrap;html=1;" vertex="1" parent="PlFN_3los5BeJ4juSs5C-82">
          <mxGeometry width="80" height="60" as="geometry" />
        </mxCell>
        <mxCell id="PlFN_3los5BeJ4juSs5C-84" value="" style="rounded=0;whiteSpace=wrap;html=1;" vertex="1" parent="PlFN_3los5BeJ4juSs5C-82">
          <mxGeometry x="80" width="40" height="60" as="geometry" />
        </mxCell>
        <mxCell id="PlFN_3los5BeJ4juSs5C-73" value="&lt;font style=&quot;font-size: 24px;&quot;&gt;13&lt;/font&gt;" style="rounded=0;whiteSpace=wrap;html=1;" vertex="1" parent="1">
          <mxGeometry x="415" y="660" width="80" height="60" as="geometry" />
        </mxCell>
        <mxCell id="PlFN_3los5BeJ4juSs5C-87" value="" style="endArrow=classic;html=1;rounded=0;exitX=0.5;exitY=1;exitDx=0;exitDy=0;entryX=0.5;entryY=0;entryDx=0;entryDy=0;" edge="1" parent="1" source="PlFN_3los5BeJ4juSs5C-50" target="PlFN_3los5BeJ4juSs5C-65">
          <mxGeometry width="50" height="50" relative="1" as="geometry">
            <mxPoint x="125" y="500" as="sourcePoint" />
            <mxPoint x="175" y="450" as="targetPoint" />
          </mxGeometry>
        </mxCell>
        <mxCell id="PlFN_3los5BeJ4juSs5C-127" value="" style="endArrow=classic;html=1;rounded=0;entryX=0.5;entryY=0;entryDx=0;entryDy=0;exitX=0.5;exitY=1;exitDx=0;exitDy=0;" edge="1" parent="1" source="PlFN_3los5BeJ4juSs5C-53" target="PlFN_3los5BeJ4juSs5C-74">
          <mxGeometry width="50" height="50" relative="1" as="geometry">
            <mxPoint x="245" y="510" as="sourcePoint" />
            <mxPoint x="250" y="540" as="targetPoint" />
          </mxGeometry>
        </mxCell>
        <mxCell id="PlFN_3los5BeJ4juSs5C-128" value="" style="endArrow=classic;html=1;rounded=0;exitX=0.5;exitY=1;exitDx=0;exitDy=0;entryX=0.5;entryY=0;entryDx=0;entryDy=0;" edge="1" parent="1" source="PlFN_3los5BeJ4juSs5C-56" target="PlFN_3los5BeJ4juSs5C-64">
          <mxGeometry width="50" height="50" relative="1" as="geometry">
            <mxPoint x="335" y="510" as="sourcePoint" />
            <mxPoint x="365" y="610" as="targetPoint" />
          </mxGeometry>
        </mxCell>
        <mxCell id="PlFN_3los5BeJ4juSs5C-129" value="&lt;font style=&quot;font-size: 24px;&quot;&gt;20&lt;/font&gt;" style="rounded=0;whiteSpace=wrap;html=1;" vertex="1" parent="1">
          <mxGeometry x="495" y="660" width="80" height="60" as="geometry" />
        </mxCell>
        <mxCell id="PlFN_3los5BeJ4juSs5C-130" value="&lt;font style=&quot;font-size: 24px;&quot;&gt;18&lt;/font&gt;" style="rounded=0;whiteSpace=wrap;html=1;" vertex="1" parent="1">
          <mxGeometry x="575" y="660" width="80" height="60" as="geometry" />
        </mxCell>
        <mxCell id="PlFN_3los5BeJ4juSs5C-131" value="" style="endArrow=classic;html=1;rounded=0;exitX=0.5;exitY=1;exitDx=0;exitDy=0;entryX=0.5;entryY=0;entryDx=0;entryDy=0;" edge="1" parent="1" source="PlFN_3los5BeJ4juSs5C-59" target="PlFN_3los5BeJ4juSs5C-64">
          <mxGeometry width="50" height="50" relative="1" as="geometry">
            <mxPoint x="405" y="450" as="sourcePoint" />
            <mxPoint x="385" y="670" as="targetPoint" />
          </mxGeometry>
        </mxCell>
        <mxCell id="PlFN_3los5BeJ4juSs5C-132" value="" style="endArrow=classic;html=1;rounded=0;exitX=0.5;exitY=1;exitDx=0;exitDy=0;entryX=0.5;entryY=0;entryDx=0;entryDy=0;" edge="1" parent="1" source="PlFN_3los5BeJ4juSs5C-77" target="PlFN_3los5BeJ4juSs5C-64">
          <mxGeometry width="50" height="50" relative="1" as="geometry">
            <mxPoint x="415" y="460" as="sourcePoint" />
            <mxPoint x="395" y="680" as="targetPoint" />
          </mxGeometry>
        </mxCell>
        <mxCell id="PlFN_3los5BeJ4juSs5C-71" value="&lt;font style=&quot;font-size: 24px;&quot;&gt;35&lt;/font&gt;" style="rounded=0;whiteSpace=wrap;html=1;" vertex="1" parent="1">
          <mxGeometry x="755" y="500" width="80" height="60" as="geometry" />
        </mxCell>
        <mxCell id="PlFN_3los5BeJ4juSs5C-74" value="&lt;font style=&quot;font-size: 24px;&quot;&gt;4&lt;/font&gt;" style="rounded=0;whiteSpace=wrap;html=1;" vertex="1" parent="1">
          <mxGeometry x="145" y="680" width="80" height="60" as="geometry" />
        </mxCell>
        <mxCell id="PlFN_3los5BeJ4juSs5C-133" value="&lt;font style=&quot;font-size: 24px;&quot;&gt;25&lt;/font&gt;" style="rounded=0;whiteSpace=wrap;html=1;" vertex="1" parent="1">
          <mxGeometry x="675" y="500" width="80" height="60" as="geometry" />
        </mxCell>
        <mxCell id="PlFN_3los5BeJ4juSs5C-134" value="" style="endArrow=classic;html=1;rounded=0;entryX=0.5;entryY=0;entryDx=0;entryDy=0;exitX=0.5;exitY=1;exitDx=0;exitDy=0;" edge="1" parent="1" source="PlFN_3los5BeJ4juSs5C-84" target="PlFN_3los5BeJ4juSs5C-133">
          <mxGeometry width="50" height="50" relative="1" as="geometry">
            <mxPoint x="495" y="560" as="sourcePoint" />
            <mxPoint x="545" y="510" as="targetPoint" />
          </mxGeometry>
        </mxCell>
        <mxCell id="PlFN_3los5BeJ4juSs5C-136" value="&lt;font style=&quot;font-size: 24px;&quot;&gt;19&lt;/font&gt;" style="rounded=0;whiteSpace=wrap;html=1;" vertex="1" parent="1">
          <mxGeometry x="655" y="660" width="80" height="60" as="geometry" />
        </mxCell>
        <mxCell id="PlFN_3los5BeJ4juSs5C-137" value="" style="group" vertex="1" connectable="0" parent="1">
          <mxGeometry x="125" y="810" width="120" height="60" as="geometry" />
        </mxCell>
        <mxCell id="PlFN_3los5BeJ4juSs5C-138" value="&lt;font style=&quot;font-size: 24px;&quot;&gt;1&lt;/font&gt;" style="rounded=0;whiteSpace=wrap;html=1;" vertex="1" parent="PlFN_3los5BeJ4juSs5C-137">
          <mxGeometry width="80" height="60" as="geometry" />
        </mxCell>
        <mxCell id="PlFN_3los5BeJ4juSs5C-139" value="" style="rounded=0;whiteSpace=wrap;html=1;" vertex="1" parent="PlFN_3los5BeJ4juSs5C-137">
          <mxGeometry x="80" width="40" height="60" as="geometry" />
        </mxCell>
        <mxCell id="PlFN_3los5BeJ4juSs5C-140" value="" style="group" vertex="1" connectable="0" parent="1">
          <mxGeometry x="245" y="810" width="120" height="60" as="geometry" />
        </mxCell>
        <mxCell id="PlFN_3los5BeJ4juSs5C-141" value="&lt;font style=&quot;font-size: 24px;&quot;&gt;2&lt;/font&gt;" style="rounded=0;whiteSpace=wrap;html=1;" vertex="1" parent="PlFN_3los5BeJ4juSs5C-140">
          <mxGeometry width="80" height="60" as="geometry" />
        </mxCell>
        <mxCell id="PlFN_3los5BeJ4juSs5C-142" value="" style="rounded=0;whiteSpace=wrap;html=1;" vertex="1" parent="PlFN_3los5BeJ4juSs5C-140">
          <mxGeometry x="80" width="40" height="60" as="geometry" />
        </mxCell>
        <mxCell id="PlFN_3los5BeJ4juSs5C-143" value="" style="group" vertex="1" connectable="0" parent="1">
          <mxGeometry x="365" y="810" width="120" height="60" as="geometry" />
        </mxCell>
        <mxCell id="PlFN_3los5BeJ4juSs5C-144" value="&lt;font style=&quot;font-size: 24px;&quot;&gt;3&lt;/font&gt;&lt;span style=&quot;color: rgba(0, 0, 0, 0); font-family: monospace; font-size: 0px; text-align: start; text-wrap-mode: nowrap;&quot;&gt;%3CmxGraphModel%3E%3Croot%3E%3CmxCell%20id%3D%220%22%2F%3E%3CmxCell%20id%3D%221%22%20parent%3D%220%22%2F%3E%3CmxCell%20id%3D%222%22%20value%3D%22%22%20style%3D%22group%22%20vertex%3D%221%22%20connectable%3D%220%22%20parent%3D%221%22%3E%3CmxGeometry%20x%3D%22230%22%20y%3D%22180%22%20width%3D%22120%22%20height%3D%2260%22%20as%3D%22geometry%22%2F%3E%3C%2FmxCell%3E%3CmxCell%20id%3D%223%22%20value%3D%22%26lt%3Bfont%20style%3D%26quot%3Bfont-size%3A%2024px%3B%26quot%3B%26gt%3B1%26lt%3B%2Ffont%26gt%3B%22%20style%3D%22rounded%3D0%3BwhiteSpace%3Dwrap%3Bhtml%3D1%3B%22%20vertex%3D%221%22%20parent%3D%222%22%3E%3CmxGeometry%20width%3D%2280%22%20height%3D%2260%22%20as%3D%22geometry%22%2F%3E%3C%2FmxCell%3E%3CmxCell%20id%3D%224%22%20value%3D%22%22%20style%3D%22rounded%3D0%3BwhiteSpace%3Dwrap%3Bhtml%3D1%3B%22%20vertex%3D%221%22%20parent%3D%222%22%3E%3CmxGeometry%20x%3D%2280%22%20width%3D%2240%22%20height%3D%2260%22%20as%3D%22geometry%22%2F%3E%3C%2FmxCell%3E%3C%2Froot%3E%3C%2FmxGraphModel%3E&lt;/span&gt;" style="rounded=0;whiteSpace=wrap;html=1;" vertex="1" parent="PlFN_3los5BeJ4juSs5C-143">
          <mxGeometry width="80" height="60" as="geometry" />
        </mxCell>
        <mxCell id="PlFN_3los5BeJ4juSs5C-145" value="" style="rounded=0;whiteSpace=wrap;html=1;" vertex="1" parent="PlFN_3los5BeJ4juSs5C-143">
          <mxGeometry x="80" width="40" height="60" as="geometry" />
        </mxCell>
        <mxCell id="PlFN_3los5BeJ4juSs5C-146" value="" style="group" vertex="1" connectable="0" parent="1">
          <mxGeometry x="485" y="810" width="120" height="60" as="geometry" />
        </mxCell>
        <mxCell id="PlFN_3los5BeJ4juSs5C-147" value="&lt;font style=&quot;font-size: 24px;&quot;&gt;4&lt;/font&gt;&lt;span style=&quot;color: rgba(0, 0, 0, 0); font-family: monospace; font-size: 0px; text-align: start; text-wrap-mode: nowrap;&quot;&gt;%3CmxGraphModel%3E%3Croot%3E%3CmxCell%20id%3D%220%22%2F%3E%3CmxCell%20id%3D%221%22%20parent%3D%220%22%2F%3E%3CmxCell%20id%3D%222%22%20value%3D%22%22%20style%3D%22group%22%20vertex%3D%221%22%20connectable%3D%220%22%20parent%3D%221%22%3E%3CmxGeometry%20x%3D%22230%22%20y%3D%22180%22%20width%3D%22120%22%20height%3D%2260%22%20as%3D%22geometry%22%2F%3E%3C%2FmxCell%3E%3CmxCell%20id%3D%223%22%20value%3D%22%26lt%3Bfont%20style%3D%26quot%3Bfont-size%3A%2024px%3B%26quot%3B%26gt%3B1%26lt%3B%2Ffont%26gt%3B%22%20style%3D%22rounded%3D0%3BwhiteSpace%3Dwrap%3Bhtml%3D1%3B%22%20vertex%3D%221%22%20parent%3D%222%22%3E%3CmxGeometry%20width%3D%2280%22%20height%3D%2260%22%20as%3D%22geometry%22%2F%3E%3C%2FmxCell%3E%3CmxCell%20id%3D%224%22%20value%3D%22%22%20style%3D%22rounded%3D0%3BwhiteSpace%3Dwrap%3Bhtml%3D1%3B%22%20vertex%3D%221%22%20parent%3D%222%22%3E%3CmxGeometry%20x%3D%2280%22%20width%3D%2240%22%20height%3D%2260%22%20as%3D%22geometry%22%2F%3E%3C%2FmxCell%3E%3C%2Froot%3E%3C%2FmxGraphModel%3E&lt;/span&gt;&lt;span style=&quot;color: rgba(0, 0, 0, 0); font-family: monospace; font-size: 0px; text-align: start; text-wrap-mode: nowrap;&quot;&gt;%3CmxGraphModel%3E%3Croot%3E%3CmxCell%20id%3D%220%22%2F%3E%3CmxCell%20id%3D%221%22%20parent%3D%220%22%2F%3E%3CmxCell%20id%3D%222%22%20value%3D%22%22%20style%3D%22group%22%20vertex%3D%221%22%20connectable%3D%220%22%20parent%3D%221%22%3E%3CmxGeometry%20x%3D%22230%22%20y%3D%22180%22%20width%3D%22120%22%20height%3D%2260%22%20as%3D%22geometry%22%2F%3E%3C%2FmxCell%3E%3CmxCell%20id%3D%223%22%20value%3D%22%26lt%3Bfont%20style%3D%26quot%3Bfont-size%3A%2024px%3B%26quot%3B%26gt%3B1%26lt%3B%2Ffont%26gt%3B%22%20style%3D%22rounded%3D0%3BwhiteSpace%3Dwrap%3Bhtml%3D1%3B%22%20vertex%3D%221%22%20parent%3D%222%22%3E%3CmxGeometry%20width%3D%2280%22%20height%3D%2260%22%20as%3D%22geometry%22%2F%3E%3C%2FmxCell%3E%3CmxCell%20id%3D%224%22%20value%3D%22%22%20style%3D%22rounded%3D0%3BwhiteSpace%3Dwrap%3Bhtml%3D1%3B%22%20vertex%3D%221%22%20parent%3D%222%22%3E%3CmxGeometry%20x%3D%2280%22%20width%3D%2240%22%20height%3D%2260%22%20as%3D%22geometry%22%2F%3E%3C%2FmxCell%3E%3C%2Froot%3E%3C%2FmxGraphModel%3E&lt;/span&gt;" style="rounded=0;whiteSpace=wrap;html=1;" vertex="1" parent="PlFN_3los5BeJ4juSs5C-146">
          <mxGeometry width="80" height="60" as="geometry" />
        </mxCell>
        <mxCell id="PlFN_3los5BeJ4juSs5C-148" value="" style="rounded=0;whiteSpace=wrap;html=1;" vertex="1" parent="PlFN_3los5BeJ4juSs5C-146">
          <mxGeometry x="80" width="40" height="60" as="geometry" />
        </mxCell>
        <mxCell id="PlFN_3los5BeJ4juSs5C-149" value="" style="group" vertex="1" connectable="0" parent="1">
          <mxGeometry x="5" y="810" width="120" height="60" as="geometry" />
        </mxCell>
        <mxCell id="PlFN_3los5BeJ4juSs5C-150" value="&lt;font style=&quot;font-size: 24px;&quot;&gt;0&lt;/font&gt;" style="rounded=0;whiteSpace=wrap;html=1;" vertex="1" parent="PlFN_3los5BeJ4juSs5C-149">
          <mxGeometry width="80" height="60" as="geometry" />
        </mxCell>
        <mxCell id="PlFN_3los5BeJ4juSs5C-151" value="" style="rounded=0;whiteSpace=wrap;html=1;" vertex="1" parent="PlFN_3los5BeJ4juSs5C-149">
          <mxGeometry x="80" width="40" height="60" as="geometry" />
        </mxCell>
        <mxCell id="PlFN_3los5BeJ4juSs5C-152" value="" style="endArrow=classic;html=1;rounded=0;entryX=0.5;entryY=0;entryDx=0;entryDy=0;exitX=0.5;exitY=1;exitDx=0;exitDy=0;" edge="1" parent="1" source="PlFN_3los5BeJ4juSs5C-151" target="PlFN_3los5BeJ4juSs5C-154">
          <mxGeometry width="50" height="50" relative="1" as="geometry">
            <mxPoint x="25" y="1110" as="sourcePoint" />
            <mxPoint x="85" y="980" as="targetPoint" />
          </mxGeometry>
        </mxCell>
        <mxCell id="PlFN_3los5BeJ4juSs5C-153" value="&lt;font style=&quot;font-size: 24px;&quot;&gt;5&lt;/font&gt;" style="rounded=0;whiteSpace=wrap;html=1;" vertex="1" parent="1">
          <mxGeometry x="295" y="970" width="80" height="60" as="geometry" />
        </mxCell>
        <mxCell id="PlFN_3los5BeJ4juSs5C-154" value="&lt;font style=&quot;font-size: 24px;&quot;&gt;1&lt;/font&gt;" style="rounded=0;whiteSpace=wrap;html=1;" vertex="1" parent="1">
          <mxGeometry x="95" y="980" width="80" height="60" as="geometry" />
        </mxCell>
        <mxCell id="PlFN_3los5BeJ4juSs5C-156" value="" style="endArrow=classic;html=1;rounded=0;entryX=0.5;entryY=0;entryDx=0;entryDy=0;exitX=0.5;exitY=1;exitDx=0;exitDy=0;" edge="1" parent="1" source="PlFN_3los5BeJ4juSs5C-139" target="PlFN_3los5BeJ4juSs5C-154">
          <mxGeometry width="50" height="50" relative="1" as="geometry">
            <mxPoint x="165" y="940" as="sourcePoint" />
            <mxPoint x="215" y="890" as="targetPoint" />
          </mxGeometry>
        </mxCell>
        <mxCell id="PlFN_3los5BeJ4juSs5C-157" value="" style="endArrow=classic;html=1;rounded=0;exitX=0.5;exitY=1;exitDx=0;exitDy=0;entryX=0.5;entryY=0;entryDx=0;entryDy=0;" edge="1" parent="1" source="PlFN_3los5BeJ4juSs5C-145" target="PlFN_3los5BeJ4juSs5C-162">
          <mxGeometry width="50" height="50" relative="1" as="geometry">
            <mxPoint x="265" y="960" as="sourcePoint" />
            <mxPoint x="315" y="910" as="targetPoint" />
          </mxGeometry>
        </mxCell>
        <mxCell id="PlFN_3los5BeJ4juSs5C-158" value="" style="endArrow=classic;html=1;rounded=0;entryX=0.5;entryY=0;entryDx=0;entryDy=0;exitX=0.5;exitY=1;exitDx=0;exitDy=0;" edge="1" parent="1" source="PlFN_3los5BeJ4juSs5C-142" target="PlFN_3los5BeJ4juSs5C-162">
          <mxGeometry width="50" height="50" relative="1" as="geometry">
            <mxPoint x="335" y="980" as="sourcePoint" />
            <mxPoint x="385" y="930" as="targetPoint" />
          </mxGeometry>
        </mxCell>
        <mxCell id="PlFN_3los5BeJ4juSs5C-159" value="" style="endArrow=classic;html=1;rounded=0;entryX=0.5;entryY=0;entryDx=0;entryDy=0;exitX=0.5;exitY=1;exitDx=0;exitDy=0;" edge="1" parent="1" source="PlFN_3los5BeJ4juSs5C-148" target="PlFN_3los5BeJ4juSs5C-162">
          <mxGeometry width="50" height="50" relative="1" as="geometry">
            <mxPoint x="355" y="880" as="sourcePoint" />
            <mxPoint x="435" y="990" as="targetPoint" />
          </mxGeometry>
        </mxCell>
        <mxCell id="PlFN_3los5BeJ4juSs5C-160" value="&lt;font style=&quot;font-size: 24px;&quot;&gt;0&lt;/font&gt;" style="rounded=0;whiteSpace=wrap;html=1;" vertex="1" parent="1">
          <mxGeometry x="175" y="980" width="80" height="60" as="geometry" />
        </mxCell>
        <mxCell id="PlFN_3los5BeJ4juSs5C-161" value="" style="group" vertex="1" connectable="0" parent="1">
          <mxGeometry x="545" y="980" width="160" height="60" as="geometry" />
        </mxCell>
        <mxCell id="PlFN_3los5BeJ4juSs5C-162" value="&lt;font style=&quot;font-size: 24px;&quot;&gt;2&lt;/font&gt;" style="rounded=0;whiteSpace=wrap;html=1;" vertex="1" parent="PlFN_3los5BeJ4juSs5C-161">
          <mxGeometry width="80" height="60" as="geometry" />
        </mxCell>
        <mxCell id="PlFN_3los5BeJ4juSs5C-155" value="&lt;font style=&quot;font-size: 24px;&quot;&gt;3&lt;/font&gt;" style="rounded=0;whiteSpace=wrap;html=1;" vertex="1" parent="PlFN_3los5BeJ4juSs5C-161">
          <mxGeometry x="80" width="80" height="60" as="geometry" />
        </mxCell>
        <mxCell id="PlFN_3los5BeJ4juSs5C-164" value="" style="group" vertex="1" connectable="0" parent="1">
          <mxGeometry x="605" y="810" width="120" height="60" as="geometry" />
        </mxCell>
        <mxCell id="PlFN_3los5BeJ4juSs5C-165" value="&lt;span style=&quot;font-size: 24px;&quot;&gt;5&lt;/span&gt;" style="rounded=0;whiteSpace=wrap;html=1;" vertex="1" parent="PlFN_3los5BeJ4juSs5C-164">
          <mxGeometry width="80" height="60" as="geometry" />
        </mxCell>
        <mxCell id="PlFN_3los5BeJ4juSs5C-166" value="" style="rounded=0;whiteSpace=wrap;html=1;" vertex="1" parent="PlFN_3los5BeJ4juSs5C-164">
          <mxGeometry x="80" width="40" height="60" as="geometry" />
        </mxCell>
        <mxCell id="PlFN_3los5BeJ4juSs5C-167" value="" style="endArrow=classic;html=1;rounded=0;exitX=0.5;exitY=1;exitDx=0;exitDy=0;entryX=0.5;entryY=0;entryDx=0;entryDy=0;" edge="1" parent="1" source="PlFN_3los5BeJ4juSs5C-166" target="PlFN_3los5BeJ4juSs5C-153">
          <mxGeometry width="50" height="50" relative="1" as="geometry">
            <mxPoint x="595" y="880" as="sourcePoint" />
            <mxPoint x="85" y="980" as="targetPoint" />
          </mxGeometry>
        </mxCell>
        <mxCell id="PlFN_3los5BeJ4juSs5C-168" value="&lt;b&gt;&lt;font style=&quot;font-size: 36px;&quot;&gt;Index&lt;/font&gt;&lt;/b&gt;" style="text;strokeColor=none;fillColor=none;align=left;verticalAlign=middle;spacingLeft=4;spacingRight=4;overflow=hidden;points=[[0,0.5],[1,0.5]];portConstraint=eastwest;rotatable=0;whiteSpace=wrap;html=1;" vertex="1" parent="1">
          <mxGeometry x="295" y="770" width="130" height="40" as="geometry" />
        </mxCell>
        <mxCell id="PlFN_3los5BeJ4juSs5C-169" value="&lt;b&gt;&lt;font style=&quot;font-size: 36px;&quot;&gt;Files&lt;/font&gt;&lt;/b&gt;" style="text;strokeColor=none;fillColor=none;align=left;verticalAlign=middle;spacingLeft=4;spacingRight=4;overflow=hidden;points=[[0,0.5],[1,0.5]];portConstraint=eastwest;rotatable=0;whiteSpace=wrap;html=1;" vertex="1" parent="1">
          <mxGeometry x="415" y="1050" width="130" height="40" as="geometry" />
        </mxCell>
        <mxCell id="PlFN_3los5BeJ4juSs5C-171" value="" style="group" vertex="1" connectable="0" parent="1">
          <mxGeometry x="725" y="810" width="120" height="60" as="geometry" />
        </mxCell>
        <mxCell id="PlFN_3los5BeJ4juSs5C-172" value="&lt;span style=&quot;font-size: 24px;&quot;&gt;7&lt;/span&gt;" style="rounded=0;whiteSpace=wrap;html=1;" vertex="1" parent="PlFN_3los5BeJ4juSs5C-171">
          <mxGeometry width="80" height="60" as="geometry" />
        </mxCell>
        <mxCell id="PlFN_3los5BeJ4juSs5C-173" value="" style="rounded=0;whiteSpace=wrap;html=1;" vertex="1" parent="PlFN_3los5BeJ4juSs5C-171">
          <mxGeometry x="80" width="40" height="60" as="geometry" />
        </mxCell>
        <mxCell id="PlFN_3los5BeJ4juSs5C-174" value="&lt;font style=&quot;font-size: 24px;&quot;&gt;7&lt;/font&gt;" style="rounded=0;whiteSpace=wrap;html=1;" vertex="1" parent="1">
          <mxGeometry x="375" y="970" width="80" height="60" as="geometry" />
        </mxCell>
        <mxCell id="PlFN_3los5BeJ4juSs5C-175" value="" style="endArrow=classic;html=1;rounded=0;exitX=0.5;exitY=1;exitDx=0;exitDy=0;entryX=0.5;entryY=0;entryDx=0;entryDy=0;" edge="1" parent="1" source="PlFN_3los5BeJ4juSs5C-173" target="PlFN_3los5BeJ4juSs5C-153">
          <mxGeometry width="50" height="50" relative="1" as="geometry">
            <mxPoint x="715" y="880" as="sourcePoint" />
            <mxPoint x="65" y="980" as="targetPoint" />
          </mxGeometry>
        </mxCell>
        <mxCell id="PlFN_3los5BeJ4juSs5C-163" value="&lt;font style=&quot;font-size: 24px;&quot;&gt;4&lt;/font&gt;" style="rounded=0;whiteSpace=wrap;html=1;" vertex="1" parent="1">
          <mxGeometry x="705" y="980" width="80" height="60" as="geometry" />
        </mxCell>
      </root>
    </mxGraphModel>
  </diagram>
</mxfile>
